# xmcd
#
# Track frame offsets:
#	150
#	22610
#	38427
#	53477
#	65525
#	86447
#	96102
#	120375
#	137297
#	148852
#	163402
#	179297
#	193297
#	216735
#	230445
#
# Disc length: 3309
#
# Revision: 1
# Processed by: cddbd v1.5.1PL0 Copyright (c) Steve Scherf et al.
# Submitted via: CDex 1.50
# Normalized: r0:DSETVAR1,TDELIM( - )
#
DISCID=ca0ceb0f
DTITLE=Various Artist - All Time Jazz Vocal Classics
DYEAR=1900
DGENRE=Jazz
TTITLE0=Louis Armstrong with Ella Fitzgerald - Summertime
TTITLE1=Shirley Horn - Go Away Little Boy
TTITLE2=Chet Baker - Something
TTITLE3=Astrud Gilberto - So Nice (Summer Samba)
TTITLE4=Bill Henderson with The Oscar Peterson Trio - You Are My Sunshine
TTITLE5=Dinah Washington - Love Is A Many Splendored Thing
TTITLE6=Stan Getz and Joao Gilberto - Girl From Ipanema
TTITLE7=Ella Fitzgerald - Laura
TTITLE8=Antonio Carlos Jobim - Luiza
TTITLE9=Nina Simone - He Ain't Comin' Home No More
TTITLE10=Mel Trome - That Old Feeling
TTITLE11=Anita O'Day - Frenesi
TTITLE12=Jack Teagarden - Basin Street Blues
TTITLE13=Sarah Vaughan - Misty
TTITLE14=Marion Williams with Ray Brown and Milt Jackson - When The Saints Go Marchin' In
EXTD=
EXTT0=
EXTT1=
EXTT2=
EXTT3=
EXTT4=
EXTT5=
EXTT6=
EXTT7=
EXTT8=
EXTT9=
EXTT10=
EXTT11=
EXTT12=
EXTT13=
EXTT14=
PLAYORDER=
